ffmpeg started on 2025-05-28 at 10:55:13
Report written to "D:\Convert\FFMetrics\reports\psnr_report-6.txt"
Log level: 32
Command line:
ffmpeg -hide_banner -nostdin -i "G:\\\xc0\xed\xe8\xec\xe5\\\xce\xed\xe3\xee\xe8\xed\xe3\xe8\\!_36_\xce\xf1\xe5\xed\xfc_2024\\JamClub\\MF \xcf\xf0\xe8\xe7\xf0\xe0\xea\\\xd2\xc2-2\\[JamClub] MF Ghost 2 - 04_HEVC.mkv" -i "G:\\\xc0\xed\xe8\xec\xe5\\\xce\xed\xe3\xee\xe8\xed\xe3\xe8\\!_36_\xce\xf1\xe5\xed\xfc_2024\\JamClub\\MF \xcf\xf0\xe8\xe7\xf0\xe0\xea\\\xd2\xc2-2\\[JamClub] MF Ghost 2 - 04.mp4" -lavfi "[0:v]settb=AVTB,setpts=PTS-STARTPTS,format=pix_fmts=yuv420p10,fps=24000/1001,scale=1920:1080:flags=bicubic[main];[1:v]settb=AVTB,setpts=PTS-STARTPTS,format=pix_fmts=yuv420p,fps=24000/1001,scale=1920:1080:flags=bicubic[ref];[main][ref]psnr=eof_action=endall:stats_file='D\\:/Convert/FFMetrics/logs/psnr_logfile-6.txt'" -f null -
Input #0, matroska,webm, from 'G:\Аниме\Онгоинги\!_36_Осень_2024\JamClub\MF Призрак\ТВ-2\[JamClub] MF Ghost 2 - 04_HEVC.mkv':
  Metadata:
    COMPATIBLE_BRANDS: isomiso2avc1mp41
    MAJOR_BRAND     : isom
    MINOR_VERSION   : 512
    ENCODER         : Lavf61.7.100
  Duration: 00:24:02.37, start: -0.001000, bitrate: 2834 kb/s
  Stream #0:0: Video: hevc (Main 10), yuv420p10le(tv, bt709, progressive), 1920x1080 [SAR 1:1 DAR 16:9], 23.98 fps, 23.98 tbr, 1k tbn (default)
      Metadata:
        HANDLER_NAME    : VideoHandler
        VENDOR_ID       : [0][0][0][0]
        ENCODER         : Lavc61.19.100 libx265
        BPS             : 2635164
        DURATION        : 00:24:02.232708333
        NUMBER_OF_FRAMES: 34579
        NUMBER_OF_BYTES : 475064911
        _STATISTICS_WRITING_APP: mkvpropedit v66.0.0 ('Josie') 64-bit
        _STATISTICS_WRITING_DATE_UTC: 2025-05-27 12:14:41
        _STATISTICS_TAGS: BPS DURATION NUMBER_OF_FRAMES NUMBER_OF_BYTES
  Stream #0:1(eng): Audio: aac (LC), 48000 Hz, stereo, fltp (default)
      Metadata:
        HANDLER_NAME    : SoundHandler
        VENDOR_ID       : [0][0][0][0]
        ENCODER         : Lavc61.19.100 aac
        BPS             : 195214
        DURATION        : 00:24:02.328000000
        NUMBER_OF_FRAMES: 67610
        NUMBER_OF_BYTES : 35195406
        _STATISTICS_WRITING_APP: mkvpropedit v66.0.0 ('Josie') 64-bit
        _STATISTICS_WRITING_DATE_UTC: 2025-05-27 12:14:41
        _STATISTICS_TAGS: BPS DURATION NUMBER_OF_FRAMES NUMBER_OF_BYTES
Input #1, mov,mp4,m4a,3gp,3g2,mj2, from 'G:\Аниме\Онгоинги\!_36_Осень_2024\JamClub\MF Призрак\ТВ-2\[JamClub] MF Ghost 2 - 04.mp4':
  Metadata:
    major_brand     : isom
    minor_version   : 512
    compatible_brands: isomiso2avc1mp41
    encoder         : Lavf60.16.100
  Duration: 00:24:02.35, start: 0.000000, bitrate: 6092 kb/s
  Stream #1:0[0x1](und): Video: h264 (High) (avc1 / 0x31637661), yuv420p(progressive), 1920x1080 [SAR 1:1 DAR 16:9], 5895 kb/s, 23.98 fps, 23.98 tbr, 90k tbn (default)
      Metadata:
        handler_name    : VideoHandler
        vendor_id       : [0][0][0][0]
  Stream #1:1[0x2](eng): Audio: aac (LC) (mp4a / 0x6134706D), 48000 Hz, stereo, fltp, 191 kb/s (default)
      Metadata:
        handler_name    : SoundHandler
        vendor_id       : [0][0][0][0]
Stream mapping:
  Stream #0:0 (hevc) -> settb:default
  Stream #1:0 (h264) -> settb:default
  psnr:default -> Stream #0:0 (wrapped_avframe)
  Stream #0:1 -> #0:1 (aac (native) -> pcm_s16le (native))
Output #0, null, to 'pipe:':
  Metadata:
    COMPATIBLE_BRANDS: isomiso2avc1mp41
    MAJOR_BRAND     : isom
    MINOR_VERSION   : 512
    encoder         : Lavf61.7.100
  Stream #0:0: Video: wrapped_avframe, yuv420p10le(tv, bt709, progressive), 1920x1080 [SAR 1:1 DAR 16:9], q=2-31, 200 kb/s, 23.98 fps, 23.98 tbn
      Metadata:
        encoder         : Lavc61.19.100 wrapped_avframe
  Stream #0:1(eng): Audio: pcm_s16le, 48000 Hz, stereo, s16, 1536 kb/s (default)
      Metadata:
        HANDLER_NAME    : SoundHandler
        VENDOR_ID       : [0][0][0][0]
        _STATISTICS_TAGS: BPS DURATION NUMBER_OF_FRAMES NUMBER_OF_BYTES
        BPS             : 195214
        DURATION        : 00:24:02.328000000
        NUMBER_OF_FRAMES: 67610
        NUMBER_OF_BYTES : 35195406
        _STATISTICS_WRITING_APP: mkvpropedit v66.0.0 ('Josie') 64-bit
        _STATISTICS_WRITING_DATE_UTC: 2025-05-27 12:14:41
        encoder         : Lavc61.19.100 pcm_s16le
frame=  114 fps=0.0 q=-0.0 size=N/A time=00:00:04.75 bitrate=N/A speed=9.06x    frame=  274 fps=265 q=-0.0 size=N/A time=00:00:11.42 bitrate=N/A speed=  11x    frame=  466 fps=301 q=-0.0 size=N/A time=00:00:19.43 bitrate=N/A speed=12.6x    frame=  710 fps=343 q=-0.0 size=N/A time=00:00:29.61 bitrate=N/A speed=14.3x    frame=  929 fps=360 q=-0.0 size=N/A time=00:00:38.74 bitrate=N/A speed=  15x    frame= 1153 fps=371 q=-0.0 size=N/A time=00:00:48.08 bitrate=N/A speed=15.5x    frame= 1359 fps=376 q=-0.0 size=N/A time=00:00:56.68 bitrate=N/A speed=15.7x    frame= 1556 fps=377 q=-0.0 size=N/A time=00:01:04.89 bitrate=N/A speed=15.7x    frame= 1760 fps=378 q=-0.0 size=N/A time=00:01:13.40 bitrate=N/A speed=15.8x    frame= 2005 fps=388 q=-0.0 size=N/A time=00:01:23.62 bitrate=N/A speed=16.2x    frame= 2218 fps=391 q=-0.0 size=N/A time=00:01:32.50 bitrate=N/A speed=16.3x    frame= 2430 fps=392 q=-0.0 size=N/A time=00:01:41.35 bitrate=N/A speed=16.4x    frame= 2666 fps=398 q=-0.0 size=N/A time=00:01:51.19 bitrate=N/A speed=16.6x    frame= 2906 fps=402 q=-0.0 size=N/A time=00:02:01.20 bitrate=N/A speed=16.8x    frame= 3109 fps=401 q=-0.0 size=N/A time=00:02:09.67 bitrate=N/A speed=16.7x    frame= 3314 fps=401 q=-0.0 size=N/A time=00:02:18.22 bitrate=N/A speed=16.7x    frame= 3510 fps=399 q=-0.0 size=N/A time=00:02:26.39 bitrate=N/A speed=16.6x    frame= 3653 fps=393 q=-0.0 size=N/A time=00:02:32.36 bitrate=N/A speed=16.4x    frame= 3806 fps=387 q=-0.0 size=N/A time=00:02:38.74 bitrate=N/A speed=16.2x    frame= 3968 fps=384 q=-0.0 size=N/A time=00:02:45.49 bitrate=N/A speed=  16x    frame= 4135 fps=381 q=-0.0 size=N/A time=00:02:52.46 bitrate=N/A speed=15.9x    frame= 4292 fps=378 q=-0.0 size=N/A time=00:02:59.01 bitrate=N/A speed=15.8x    frame= 4479 fps=377 q=-0.0 size=N/A time=00:03:06.81 bitrate=N/A speed=15.7x    frame= 4655 fps=375 q=-0.0 size=N/A time=00:03:14.15 bitrate=N/A speed=15.7x    frame= 4847 fps=375 q=-0.0 size=N/A time=00:03:22.16 bitrate=N/A speed=15.6x    frame= 4983 fps=370 q=-0.0 size=N/A time=00:03:27.83 bitrate=N/A speed=15.5x    frame= 5118 fps=367 q=-0.0 size=N/A time=00:03:33.46 bitrate=N/A speed=15.3x    frame= 5255 fps=363 q=-0.0 size=N/A time=00:03:39.17 bitrate=N/A speed=15.1x    frame= 5421 fps=362 q=-0.0 size=N/A time=00:03:46.10 bitrate=N/A speed=15.1x    frame= 5564 fps=359 q=-0.0 size=N/A time=00:03:52.06 bitrate=N/A speed=  15x    frame= 5688 fps=355 q=-0.0 size=N/A time=00:03:57.23 bitrate=N/A speed=14.8x    frame= 5884 fps=356 q=-0.0 size=N/A time=00:04:05.41 bitrate=N/A speed=14.8x    frame= 6098 fps=358 q=-0.0 size=N/A time=00:04:14.33 bitrate=N/A speed=14.9x    frame= 6341 fps=361 q=-0.0 size=N/A time=00:04:24.47 bitrate=N/A speed=15.1x    frame= 6538 fps=361 q=-0.0 size=N/A time=00:04:32.68 bitrate=N/A speed=15.1x    frame= 6756 fps=363 q=-0.0 size=N/A time=00:04:41.78 bitrate=N/A speed=15.2x    frame= 7001 fps=366 q=-0.0 size=N/A time=00:04:52.00 bitrate=N/A speed=15.3x    frame= 7170 fps=365 q=-0.0 size=N/A time=00:04:59.04 bitrate=N/A speed=15.2x    frame= 7392 fps=367 q=-0.0 size=N/A time=00:05:08.30 bitrate=N/A speed=15.3x    frame= 7593 fps=368 q=-0.0 size=N/A time=00:05:16.69 bitrate=N/A speed=15.3x    frame= 7818 fps=369 q=-0.0 size=N/A time=00:05:26.07 bitrate=N/A speed=15.4x    frame= 8040 fps=371 q=-0.0 size=N/A time=00:05:35.33 bitrate=N/A speed=15.5x    frame= 8243 fps=371 q=-0.0 size=N/A time=00:05:43.80 bitrate=N/A speed=15.5x    frame= 8417 fps=370 q=-0.0 size=N/A time=00:05:51.05 bitrate=N/A speed=15.4x    frame= 8641 fps=372 q=-0.0 size=N/A time=00:06:00.40 bitrate=N/A speed=15.5x    frame= 8846 fps=372 q=-0.0 size=N/A time=00:06:08.95 bitrate=N/A speed=15.5x    frame= 9046 fps=372 q=-0.0 size=N/A time=00:06:17.29 bitrate=N/A speed=15.5x    frame= 9243 fps=373 q=-0.0 size=N/A time=00:06:25.51 bitrate=N/A speed=15.5x    frame= 9441 fps=373 q=-0.0 size=N/A time=00:06:33.76 bitrate=N/A speed=15.6x    frame= 9617 fps=372 q=-0.0 size=N/A time=00:06:41.10 bitrate=N/A speed=15.5x    frame= 9845 fps=374 q=-0.0 size=N/A time=00:06:50.61 bitrate=N/A speed=15.6x    frame=10031 fps=373 q=-0.0 size=N/A time=00:06:58.37 bitrate=N/A speed=15.6x    frame=10229 fps=373 q=-0.0 size=N/A time=00:07:06.63 bitrate=N/A speed=15.6x    frame=10446 fps=374 q=-0.0 size=N/A time=00:07:15.68 bitrate=N/A speed=15.6x    frame=10662 fps=375 q=-0.0 size=N/A time=00:07:24.69 bitrate=N/A speed=15.6x    frame=10881 fps=376 q=-0.0 size=N/A time=00:07:33.82 bitrate=N/A speed=15.7x    frame=11085 fps=376 q=-0.0 size=N/A time=00:07:42.33 bitrate=N/A speed=15.7x    frame=11289 fps=377 q=-0.0 size=N/A time=00:07:50.84 bitrate=N/A speed=15.7x    frame=11502 fps=377 q=-0.0 size=N/A time=00:07:59.72 bitrate=N/A speed=15.7x    frame=11685 fps=377 q=-0.0 size=N/A time=00:08:07.36 bitrate=N/A speed=15.7x    frame=11872 fps=377 q=-0.0 size=N/A time=00:08:15.16 bitrate=N/A speed=15.7x    frame=12082 fps=377 q=-0.0 size=N/A time=00:08:23.92 bitrate=N/A speed=15.7x    frame=12315 fps=378 q=-0.0 size=N/A time=00:08:33.63 bitrate=N/A speed=15.8x    frame=12535 fps=379 q=-0.0 size=N/A time=00:08:42.81 bitrate=N/A speed=15.8x    frame=12778 fps=381 q=-0.0 size=N/A time=00:08:52.94 bitrate=N/A speed=15.9x    frame=13017 fps=382 q=-0.0 size=N/A time=00:09:02.91 bitrate=N/A speed=15.9x    frame=13201 fps=381 q=-0.0 size=N/A time=00:09:10.59 bitrate=N/A speed=15.9x    frame=13395 fps=381 q=-0.0 size=N/A time=00:09:18.68 bitrate=N/A speed=15.9x    frame=13580 fps=381 q=-0.0 size=N/A time=00:09:26.39 bitrate=N/A speed=15.9x    frame=13780 fps=381 q=-0.0 size=N/A time=00:09:34.74 bitrate=N/A speed=15.9x    frame=13969 fps=381 q=-0.0 size=N/A time=00:09:42.62 bitrate=N/A speed=15.9x    frame=14156 fps=380 q=-0.0 size=N/A time=00:09:50.42 bitrate=N/A speed=15.9x    frame=14335 fps=380 q=-0.0 size=N/A time=00:09:57.88 bitrate=N/A speed=15.8x    frame=14544 fps=380 q=-0.0 size=N/A time=00:10:06.60 bitrate=N/A speed=15.9x    frame=14692 fps=379 q=-0.0 size=N/A time=00:10:12.77 bitrate=N/A speed=15.8x    frame=14898 fps=379 q=-0.0 size=N/A time=00:10:21.37 bitrate=N/A speed=15.8x    frame=15142 fps=380 q=-0.0 size=N/A time=00:10:31.54 bitrate=N/A speed=15.9x    frame=15336 fps=380 q=-0.0 size=N/A time=00:10:39.63 bitrate=N/A speed=15.9x    frame=15586 fps=382 q=-0.0 size=N/A time=00:10:50.06 bitrate=N/A speed=15.9x    frame=15790 fps=382 q=-0.0 size=N/A time=00:10:58.57 bitrate=N/A speed=15.9x    frame=16013 fps=383 q=-0.0 size=N/A time=00:11:07.87 bitrate=N/A speed=  16x    frame=16195 fps=382 q=-0.0 size=N/A time=00:11:15.46 bitrate=N/A speed=15.9x    frame=16407 fps=382 q=-0.0 size=N/A time=00:11:24.30 bitrate=N/A speed=  16x    frame=16598 fps=382 q=-0.0 size=N/A time=00:11:32.27 bitrate=N/A speed=15.9x    frame=16829 fps=383 q=-0.0 size=N/A time=00:11:41.90 bitrate=N/A speed=  16x    frame=16985 fps=382 q=-0.0 size=N/A time=00:11:48.41 bitrate=N/A speed=15.9x    frame=17151 fps=381 q=-0.0 size=N/A time=00:11:55.33 bitrate=N/A speed=15.9x    frame=17343 fps=381 q=-0.0 size=N/A time=00:12:03.34 bitrate=N/A speed=15.9x    frame=17567 fps=382 q=-0.0 size=N/A time=00:12:12.69 bitrate=N/A speed=15.9x    frame=17737 fps=381 q=-0.0 size=N/A time=00:12:19.78 bitrate=N/A speed=15.9x    frame=17974 fps=382 q=-0.0 size=N/A time=00:12:29.66 bitrate=N/A speed=15.9x    frame=18233 fps=384 q=-0.0 size=N/A time=00:12:40.46 bitrate=N/A speed=  16x    frame=18506 fps=385 q=-0.0 size=N/A time=00:12:51.85 bitrate=N/A speed=16.1x    frame=18764 fps=386 q=-0.0 size=N/A time=00:13:02.61 bitrate=N/A speed=16.1x    frame=19007 fps=387 q=-0.0 size=N/A time=00:13:12.75 bitrate=N/A speed=16.2x    frame=19156 fps=386 q=-0.0 size=N/A time=00:13:18.96 bitrate=N/A speed=16.1x    frame=19329 fps=386 q=-0.0 size=N/A time=00:13:26.18 bitrate=N/A speed=16.1x    frame=19493 fps=385 q=-0.0 size=N/A time=00:13:33.02 bitrate=N/A speed=16.1x    frame=19681 fps=385 q=-0.0 size=N/A time=00:13:40.86 bitrate=N/A speed=  16x    frame=19866 fps=385 q=-0.0 size=N/A time=00:13:48.57 bitrate=N/A speed=  16x    frame=20057 fps=384 q=-0.0 size=N/A time=00:13:56.54 bitrate=N/A speed=  16x    frame=20273 fps=385 q=-0.0 size=N/A time=00:14:05.55 bitrate=N/A speed=  16x    frame=20471 fps=385 q=-0.0 size=N/A time=00:14:13.81 bitrate=N/A speed=  16x    frame=20626 fps=384 q=-0.0 size=N/A time=00:14:20.27 bitrate=N/A speed=  16x    frame=20779 fps=383 q=-0.0 size=N/A time=00:14:26.65 bitrate=N/A speed=  16x    frame=20992 fps=383 q=-0.0 size=N/A time=00:14:35.54 bitrate=N/A speed=  16x    frame=21188 fps=383 q=-0.0 size=N/A time=00:14:43.71 bitrate=N/A speed=  16x    frame=21379 fps=383 q=-0.0 size=N/A time=00:14:51.68 bitrate=N/A speed=  16x    frame=21569 fps=383 q=-0.0 size=N/A time=00:14:59.60 bitrate=N/A speed=  16x    frame=21793 fps=384 q=-0.0 size=N/A time=00:15:08.94 bitrate=N/A speed=  16x    frame=21987 fps=384 q=-0.0 size=N/A time=00:15:17.04 bitrate=N/A speed=  16x    frame=22158 fps=383 q=-0.0 size=N/A time=00:15:24.17 bitrate=N/A speed=  16x    frame=22334 fps=383 q=-0.0 size=N/A time=00:15:31.51 bitrate=N/A speed=  16x    frame=22512 fps=382 q=-0.0 size=N/A time=00:15:38.93 bitrate=N/A speed=15.9x    frame=22780 fps=383 q=-0.0 size=N/A time=00:15:50.11 bitrate=N/A speed=  16x    frame=23015 fps=384 q=-0.0 size=N/A time=00:15:59.91 bitrate=N/A speed=  16x    frame=23188 fps=384 q=-0.0 size=N/A time=00:16:07.13 bitrate=N/A speed=  16x    frame=23356 fps=383 q=-0.0 size=N/A time=00:16:14.13 bitrate=N/A speed=  16x    frame=23564 fps=383 q=-0.0 size=N/A time=00:16:22.81 bitrate=N/A speed=  16x    frame=23773 fps=383 q=-0.0 size=N/A time=00:16:31.53 bitrate=N/A speed=  16x    frame=24030 fps=384 q=-0.0 size=N/A time=00:16:42.25 bitrate=N/A speed=  16x    frame=24290 fps=385 q=-0.0 size=N/A time=00:16:53.09 bitrate=N/A speed=16.1x    frame=24537 fps=386 q=-0.0 size=N/A time=00:17:03.39 bitrate=N/A speed=16.1x    frame=24785 fps=387 q=-0.0 size=N/A time=00:17:13.74 bitrate=N/A speed=16.1x    frame=25024 fps=388 q=-0.0 size=N/A time=00:17:23.70 bitrate=N/A speed=16.2x    frame=25259 fps=388 q=-0.0 size=N/A time=00:17:33.51 bitrate=N/A speed=16.2x    frame=25509 fps=389 q=-0.0 size=N/A time=00:17:43.93 bitrate=N/A speed=16.2x    frame=25741 fps=389 q=-0.0 size=N/A time=00:17:53.61 bitrate=N/A speed=16.2x    frame=25995 fps=390 q=-0.0 size=N/A time=00:18:04.20 bitrate=N/A speed=16.3x    frame=26245 fps=391 q=-0.0 size=N/A time=00:18:14.63 bitrate=N/A speed=16.3x    frame=26522 fps=392 q=-0.0 size=N/A time=00:18:26.18 bitrate=N/A speed=16.3x    frame=26771 fps=393 q=-0.0 size=N/A time=00:18:36.57 bitrate=N/A speed=16.4x    frame=26991 fps=393 q=-0.0 size=N/A time=00:18:45.74 bitrate=N/A speed=16.4x    frame=27216 fps=393 q=-0.0 size=N/A time=00:18:55.13 bitrate=N/A speed=16.4x    frame=27407 fps=393 q=-0.0 size=N/A time=00:19:03.10 bitrate=N/A speed=16.4x    frame=27632 fps=393 q=-0.0 size=N/A time=00:19:12.48 bitrate=N/A speed=16.4x    frame=27835 fps=393 q=-0.0 size=N/A time=00:19:20.95 bitrate=N/A speed=16.4x    frame=28038 fps=393 q=-0.0 size=N/A time=00:19:29.41 bitrate=N/A speed=16.4x    frame=28247 fps=393 q=-0.0 size=N/A time=00:19:38.13 bitrate=N/A speed=16.4x    frame=28433 fps=393 q=-0.0 size=N/A time=00:19:45.89 bitrate=N/A speed=16.4x    frame=28620 fps=393 q=-0.0 size=N/A time=00:19:53.73 bitrate=N/A speed=16.4x    frame=28822 fps=393 q=-0.0 size=N/A time=00:20:02.11 bitrate=N/A speed=16.4x    frame=29024 fps=393 q=-0.0 size=N/A time=00:20:10.54 bitrate=N/A speed=16.4x    frame=29231 fps=393 q=-0.0 size=N/A time=00:20:19.17 bitrate=N/A speed=16.4x    frame=29446 fps=393 q=-0.0 size=N/A time=00:20:28.14 bitrate=N/A speed=16.4x    frame=29663 fps=393 q=-0.0 size=N/A time=00:20:37.19 bitrate=N/A speed=16.4x    frame=29849 fps=393 q=-0.0 size=N/A time=00:20:44.95 bitrate=N/A speed=16.4x    frame=30045 fps=393 q=-0.0 size=N/A time=00:20:53.12 bitrate=N/A speed=16.4x    frame=30250 fps=393 q=-0.0 size=N/A time=00:21:01.67 bitrate=N/A speed=16.4x    frame=30467 fps=393 q=-0.0 size=N/A time=00:21:10.72 bitrate=N/A speed=16.4x    frame=30719 fps=394 q=-0.0 size=N/A time=00:21:21.23 bitrate=N/A speed=16.4x    frame=30969 fps=395 q=-0.0 size=N/A time=00:21:31.66 bitrate=N/A speed=16.5x    frame=31165 fps=395 q=-0.0 size=N/A time=00:21:39.84 bitrate=N/A speed=16.5x    frame=31399 fps=395 q=-0.0 size=N/A time=00:21:49.59 bitrate=N/A speed=16.5x    frame=31637 fps=395 q=-0.0 size=N/A time=00:21:59.52 bitrate=N/A speed=16.5x    frame=31881 fps=396 q=-0.0 size=N/A time=00:22:09.70 bitrate=N/A speed=16.5x    frame=32123 fps=396 q=-0.0 size=N/A time=00:22:19.79 bitrate=N/A speed=16.5x    frame=32325 fps=396 q=-0.0 size=N/A time=00:22:28.22 bitrate=N/A speed=16.5x    frame=32552 fps=396 q=-0.0 size=N/A time=00:22:37.68 bitrate=N/A speed=16.5x    frame=32780 fps=397 q=-0.0 size=N/A time=00:22:47.19 bitrate=N/A speed=16.5x    frame=32974 fps=397 q=-0.0 size=N/A time=00:22:55.29 bitrate=N/A speed=16.5x    frame=33182 fps=397 q=-0.0 size=N/A time=00:23:03.96 bitrate=N/A speed=16.5x    frame=33402 fps=397 q=-0.0 size=N/A time=00:23:13.14 bitrate=N/A speed=16.6x    frame=33627 fps=397 q=-0.0 size=N/A time=00:23:22.52 bitrate=N/A speed=16.6x    frame=33836 fps=397 q=-0.0 size=N/A time=00:23:31.28 bitrate=N/A speed=16.6x    frame=34049 fps=397 q=-0.0 size=N/A time=00:23:40.12 bitrate=N/A speed=16.6x    frame=34283 fps=398 q=-0.0 size=N/A time=00:23:49.88 bitrate=N/A speed=16.6x    frame=34473 fps=397 q=-0.0 size=N/A time=00:23:57.81 bitrate=N/A speed=16.6x    [Parsed_psnr_10 @ 000002ce9eeda640] PSNR y:47.008508 u:52.032161 v:52.005633 average:48.133322 min:37.687346 max:inf
[out#0/null @ 000002ce94701e80] video:14858KiB audio:270440KiB subtitle:0KiB other streams:0KiB global headers:0KiB muxing overhead: unknown
frame=34579 fps=397 q=-0.0 Lsize=N/A time=00:24:02.23 bitrate=N/A speed=16.6x    
